<?xml version="1.0" encoding="UTF-8" standalone="no"?>
<svg
   xmlns:dc="http://purl.org/dc/elements/1.1/"
   xmlns:cc="http://creativecommons.org/ns#"
   xmlns:rdf="http://www.w3.org/1999/02/22-rdf-syntax-ns#"
   xmlns:svg="http://www.w3.org/2000/svg"
   xmlns="http://www.w3.org/2000/svg"
   xmlns:sodipodi="http://sodipodi.sourceforge.net/DTD/sodipodi-0.dtd"
   xmlns:inkscape="http://www.inkscape.org/namespaces/inkscape"
   version="1.1"
   x="0px"
   y="0px"
   viewBox="-255 347 100 125"
   style="enable-background:new -255 347 100 100;"
   xml:space="preserve"
   id="svg3733"
   sodipodi:docname="logo_2.svg"
   inkscape:version="0.92.3 (2405546, 2018-03-11)"><metadata
     id="metadata3739"><rdf:RDF><cc:Work
         rdf:about=""><dc:format>image/svg+xml</dc:format><dc:type
           rdf:resource="http://purl.org/dc/dcmitype/StillImage" /><dc:title></dc:title></cc:Work></rdf:RDF></metadata><defs
     id="defs3737" /><sodipodi:namedview
     pagecolor="#ffffff"
     bordercolor="#666666"
     borderopacity="1"
     objecttolerance="10"
     gridtolerance="10"
     guidetolerance="10"
     inkscape:pageopacity="0"
     inkscape:pageshadow="2"
     inkscape:window-width="1920"
     inkscape:window-height="1017"
     id="namedview3735"
     showgrid="false"
     inkscape:zoom="6.808"
     inkscape:cx="35.474415"
     inkscape:cy="74.200477"
     inkscape:window-x="-8"
     inkscape:window-y="-8"
     inkscape:window-maximized="1"
     inkscape:current-layer="svg3733" /><path
     d="M-217.1,397.2c0,1.6,0.1,3.2,0.4,4.7h8.8v-9.7h-8.8C-216.9,393.8-217.1,395.5-217.1,397.2z M-214.8,386.4h7v-9.2  C-210.8,379.6-213.2,382.8-214.8,386.4z M-186,386.4c-1.7-3.2-4.2-6-7.2-8c1.7,2.4,3.1,5.1,4.1,8H-186z M-207.8,416.9v-9.3h-7.1  C-213.4,411.3-210.9,414.5-207.8,416.9z M-216.8,378.4c-3,2-5.5,4.8-7.2,8h3.1C-219.9,383.5-218.5,380.8-216.8,378.4z M-224,407.6  c1.7,3.1,4,5.8,6.9,7.8c-1.7-2.4-3-5-3.9-7.8H-224z M-222.7,397.2c0-1.7,0.1-3.3,0.4-5h-3.7c-0.3,1.6-0.5,3.2-0.5,4.8  c0,1.7,0.2,3.3,0.5,4.8h3.7C-222.6,400.3-222.7,398.8-222.7,397.2z M-159,388.6c-5.3-9.4-10.4-18.7-15.8-28  c-3.2-5.5-8.1-8.5-14.4-8.5c-10.4-0.1-21,0-31.5,0c-1.6,0-3.2,0.2-4.7,0.8c-4.1,1.4-7.4,3.9-9.6,7.7c-5.2,9.1-10.3,18.4-15.5,27.6  c-1.4,2.4-2.2,5-2.4,7.7c-0.2,3.4,0.3,6.6,2,9.6c5.3,9.3,10.6,18.5,15.7,27.8c1.4,2.6,3.4,4.6,5.9,6.1c2.4,1.4,5,2.5,7.8,2.5h32.2  c1.5,0,3-0.2,4.4-0.7c4.2-1.4,7.6-3.7,9.9-7.8c5.3-9.3,10.4-18.5,15.7-27.8c1.4-2.5,2.2-5.2,2.3-8  C-156.9,394.4-157.4,391.4-159,388.6z M-205,425c-15,0-27.3-12.5-27.3-28c0-15.4,12.2-28,27.3-28c15,0,27.3,12.6,27.3,28  C-177.7,412.4-190,425-205,425z M-187.3,397.2c0,1.6-0.1,3.2-0.3,4.7h3.7c0.3-1.6,0.5-3.2,0.5-4.8c0-1.7-0.2-3.3-0.5-4.8h-3.7  C-187.4,393.8-187.3,395.5-187.3,397.2z M-192.9,415.4c2.9-2,5.2-4.7,6.9-7.8h-2.9C-189.9,410.4-191.3,413.1-192.9,415.4z   M-202.2,392.2v9.7h8.8c0.3-1.5,0.4-3.1,0.4-4.7c0-1.7-0.2-3.4-0.5-5H-202.2z M-202.2,377.2v9.2h7  C-196.8,382.8-199.2,379.6-202.2,377.2z M-202.2,416.9c3.1-2.4,5.5-5.6,7.1-9.3h-7.1V416.9z"
     id="path3727"
     style="stroke:#ff2f6e;stroke-opacity:1;fill:#ff2f6e;fill-opacity:1" /><text
     x="-255"
     y="462"
     font-size="5px"
     font-weight="bold"
     id="text3729"
     style="font-weight:bold;font-size:5px;font-family:'Helvetica Neue', Helvetica, Arial-Unicode, Arial, Sans-serif;fill:#000000" />
<text
     x="-255"
     y="467"
     font-size="5px"
     font-weight="bold"
     id="text3731"
     style="font-weight:bold;font-size:5px;font-family:'Helvetica Neue', Helvetica, Arial-Unicode, Arial, Sans-serif;fill:#000000" />
</svg>