<?xml version="1.0" encoding="UTF-8" standalone="no"?>
<svg
   xmlns:dc="http://purl.org/dc/elements/1.1/"
   xmlns:cc="http://creativecommons.org/ns#"
   xmlns:rdf="http://www.w3.org/1999/02/22-rdf-syntax-ns#"
   xmlns:svg="http://www.w3.org/2000/svg"
   xmlns="http://www.w3.org/2000/svg"
   xmlns:sodipodi="http://sodipodi.sourceforge.net/DTD/sodipodi-0.dtd"
   xmlns:inkscape="http://www.inkscape.org/namespaces/inkscape"
   version="1.1"
   x="0px"
   y="0px"
   viewBox="-255 347 100 125"
   style="enable-background:new -255 347 100 100;"
   xml:space="preserve"
   id="svg3733"
   sodipodi:docname="logo.svg"
   inkscape:version="0.92.3 (2405546, 2018-03-11)"
   inkscape:export-filename="C:\Users\junseok\Desktop\심슨영어\logo_2.png"
   inkscape:export-xdpi="63.370686"
   inkscape:export-ydpi="63.370686"><metadata
     id="metadata3739"><rdf:RDF><cc:Work
         rdf:about=""><dc:format>image/svg+xml</dc:format><dc:type
           rdf:resource="http://purl.org/dc/dcmitype/StillImage" /><dc:title></dc:title></cc:Work></rdf:RDF></metadata><defs
     id="defs3737" /><sodipodi:namedview
     pagecolor="#ffffff"
     bordercolor="#666666"
     borderopacity="1"
     objecttolerance="10"
     gridtolerance="10"
     guidetolerance="10"
     inkscape:pageopacity="0"
     inkscape:pageshadow="2"
     inkscape:window-width="1920"
     inkscape:window-height="1017"
     id="namedview3735"
     showgrid="false"
     inkscape:zoom="6.808"
     inkscape:cx="30.553733"
     inkscape:cy="62.449596"
     inkscape:window-x="-8"
     inkscape:window-y="-8"
     inkscape:window-maximized="1"
     inkscape:current-layer="svg3733" /><path
     d="M-217.1,397.2c0,1.6,0.1,3.2,0.4,4.7h8.8v-9.7h-8.8C-216.9,393.8-217.1,395.5-217.1,397.2z M-214.8,386.4h7v-9.2  C-210.8,379.6-213.2,382.8-214.8,386.4z M-186,386.4c-1.7-3.2-4.2-6-7.2-8c1.7,2.4,3.1,5.1,4.1,8H-186z M-207.8,416.9v-9.3h-7.1  C-213.4,411.3-210.9,414.5-207.8,416.9z M-216.8,378.4c-3,2-5.5,4.8-7.2,8h3.1C-219.9,383.5-218.5,380.8-216.8,378.4z M-224,407.6  c1.7,3.1,4,5.8,6.9,7.8c-1.7-2.4-3-5-3.9-7.8H-224z M-222.7,397.2c0-1.7,0.1-3.3,0.4-5h-3.7c-0.3,1.6-0.5,3.2-0.5,4.8  c0,1.7,0.2,3.3,0.5,4.8h3.7C-222.6,400.3-222.7,398.8-222.7,397.2z M-159,388.6c-5.3-9.4-10.4-18.7-15.8-28  c-3.2-5.5-8.1-8.5-14.4-8.5c-10.4-0.1-21,0-31.5,0c-1.6,0-3.2,0.2-4.7,0.8c-4.1,1.4-7.4,3.9-9.6,7.7c-5.2,9.1-10.3,18.4-15.5,27.6  c-1.4,2.4-2.2,5-2.4,7.7c-0.2,3.4,0.3,6.6,2,9.6c5.3,9.3,10.6,18.5,15.7,27.8c1.4,2.6,3.4,4.6,5.9,6.1c2.4,1.4,5,2.5,7.8,2.5h32.2  c1.5,0,3-0.2,4.4-0.7c4.2-1.4,7.6-3.7,9.9-7.8c5.3-9.3,10.4-18.5,15.7-27.8c1.4-2.5,2.2-5.2,2.3-8  C-156.9,394.4-157.4,391.4-159,388.6z M-205,425c-15,0-27.3-12.5-27.3-28c0-15.4,12.2-28,27.3-28c15,0,27.3,12.6,27.3,28  C-177.7,412.4-190,425-205,425z M-187.3,397.2c0,1.6-0.1,3.2-0.3,4.7h3.7c0.3-1.6,0.5-3.2,0.5-4.8c0-1.7-0.2-3.3-0.5-4.8h-3.7  C-187.4,393.8-187.3,395.5-187.3,397.2z M-192.9,415.4c2.9-2,5.2-4.7,6.9-7.8h-2.9C-189.9,410.4-191.3,413.1-192.9,415.4z   M-202.2,392.2v9.7h8.8c0.3-1.5,0.4-3.1,0.4-4.7c0-1.7-0.2-3.4-0.5-5H-202.2z M-202.2,377.2v9.2h7  C-196.8,382.8-199.2,379.6-202.2,377.2z M-202.2,416.9c3.1-2.4,5.5-5.6,7.1-9.3h-7.1V416.9z"
     id="path3727"
     style="stroke:#ff2f6e;stroke-opacity:1;fill:#ff2f6e;fill-opacity:1" /><text
     x="-255"
     y="462"
     font-size="5px"
     font-weight="bold"
     id="text3729"
     style="font-weight:bold;font-size:5px;font-family:'Helvetica Neue', Helvetica, Arial-Unicode, Arial, Sans-serif;fill:#000000" />
<text
     x="-255"
     y="467"
     font-size="5px"
     font-weight="bold"
     id="text3731"
     style="font-weight:bold;font-size:5px;font-family:'Helvetica Neue', Helvetica, Arial-Unicode, Arial, Sans-serif;fill:#000000" />
<path
     style="fill:#ffffff;fill-opacity:1;stroke:#ffffff;stroke-width:0.14688602;stroke-opacity:1"
     d="M 46.503203,77.204062 C 33.149625,75.284818 23.297564,63.744135 23.297564,50.021027 c 0,-12.513425 8.205514,-23.425059 19.976498,-26.564604 2.596448,-0.692523 4.323094,-0.873875 7.489652,-0.786651 4.302663,0.118519 7.170263,0.837594 10.965353,2.749655 2.508169,1.263679 4.349465,2.563049 6.345934,4.478216 2.566586,2.462067 4.344361,4.878419 5.835668,7.931845 3.187096,6.525526 3.678638,14.059525 1.370411,21.0047 -3.130276,9.418618 -11.163372,16.453027 -20.805232,18.218691 -1.779506,0.325871 -6.177015,0.40926 -7.972645,0.151183 z m 1.324326,-11.68656 v -5.434783 h -4.259695 c -2.342832,0 -4.259694,0.03969 -4.259694,0.0882 0,0.275401 1.838409,3.819878 2.443056,4.710244 1.18305,1.742085 2.812177,3.544261 4.376992,4.841919 0.813456,0.674577 1.528586,1.227111 1.589176,1.227852 0.06059,7.4e-4 0.110165,-2.444306 0.110165,-5.433436 z m 5.68211,4.52397 c 2.664655,-2.096826 5.306835,-5.615351 6.868559,-9.146688 l 0.359134,-0.812065 h -4.251611 -4.251612 v 5.443452 c 0,4.313741 0.03811,5.421307 0.183608,5.336755 0.100984,-0.05868 0.59235,-0.428337 1.091922,-0.821454 z M 38.279938,68.113797 c 0,-0.07883 -0.341456,-0.675631 -0.758792,-1.32622 C 36.627556,65.394549 35.218535,62.47858 34.760394,61.0742 L 34.43695,60.082719 h -2.117872 c -1.164829,0 -2.117871,0.04144 -2.117871,0.09208 0,0.275703 1.36755,2.500879 2.284894,3.717811 1.111732,1.474805 3.182332,3.56928 4.40853,4.459365 l 0.72432,0.525776 0.330493,-0.310313 c 0.181772,-0.170671 0.330494,-0.374812 0.330494,-0.453643 z M 65.456044,66.26232 c 0.687898,-0.692406 1.591856,-1.717242 2.008797,-2.277415 0.693068,-0.931159 2.39559,-3.651559 2.39559,-3.827831 0,-0.04089 -0.942497,-0.07436 -2.094439,-0.07436 h -2.09444 l -0.353168,0.984749 c -0.469197,1.308267 -2.007296,4.382829 -2.924284,5.845451 l -0.736718,1.175088 0.376485,0.396706 0.376485,0.396706 0.897484,-0.680091 c 0.493616,-0.374049 1.46031,-1.246604 2.148208,-1.939008 z m -17.810313,-16.204571 0.03853,-5.398061 h -4.919693 -4.919693 l -0.07328,0.330493 c -0.490938,2.213997 -0.48715,7.777594 0.0069,10.137101 l 0.08499,0.405901 4.871857,-0.03869 4.871857,-0.03869 z m 14.419301,5.131749 c 0.493723,-1.298588 0.565038,-6.983192 0.118281,-9.428165 l -0.187879,-1.028202 -4.880662,-0.0387 -4.880663,-0.0387 v 5.338839 c 0,2.936361 0.04407,5.382905 0.09793,5.436762 0.05386,0.05386 2.236751,0.09792 4.850874,0.09792 h 4.752949 z m 9.652226,-0.615004 c 0.513841,-2.524798 0.529329,-6.11193 0.03789,-8.77644 l -0.182866,-0.99148 H 69.15738 66.742479 l 0.09546,0.477379 c 0.189819,0.949267 0.266956,7.364683 0.104429,8.685178 -0.08828,0.717284 -0.123902,1.3634 -0.07915,1.435812 0.04475,0.07241 1.114863,0.11348 2.378021,0.09126 l 2.296652,-0.0404 z m -38.494724,0.03672 c -0.49165,-3.638594 -0.492091,-5.54203 -0.0021,-9.184108 l 0.104244,-0.774883 -2.404589,0.04045 -2.404588,0.04045 -0.209999,1.028202 c -0.405977,1.987755 -0.272716,7.877121 0.213546,9.437426 0.04268,0.136958 0.660711,0.183608 2.432466,0.183608 h 2.375246 l -0.104198,-0.771152 z m 1.644472,-15.680082 c 0.468827,-1.337947 2.231722,-4.870535 3.034564,-6.080827 0.369676,-0.557293 0.67214,-1.080878 0.67214,-1.163522 0,-0.221549 -0.456889,-0.687496 -0.674131,-0.687496 -0.472193,0 -3.414254,2.621529 -4.780522,4.259694 -1.092272,1.309644 -2.91785,4.169843 -2.91785,4.571505 0,0.08 0.898237,0.119842 2.165622,0.09605 l 2.165622,-0.04065 z m 12.925719,-4.258925 c 0.02125,-2.867526 0.0044,-5.302911 -0.03745,-5.411966 -0.05288,-0.137798 -0.355903,0.03814 -0.993399,0.576767 -2.150796,1.817237 -3.730033,3.600313 -5.180406,5.849063 -0.72035,1.116876 -2.126447,3.842198 -2.126447,4.121517 0,0.107736 1.289678,0.144198 4.14953,0.117312 l 4.14953,-0.03901 z m 12.813887,5.203894 c 0,-0.293587 -1.764268,-3.566675 -2.592917,-4.810405 -0.981506,-1.473155 -4.193422,-4.906732 -5.302206,-5.668121 l -0.47738,-0.32781 v 5.444784 5.444785 h 4.186252 c 2.302438,0 4.186251,-0.03745 4.186251,-0.08323 z m 9.253819,0.0076 c 0,-0.04162 -0.210172,-0.454734 -0.467049,-0.918038 -0.870778,-1.570536 -2.181883,-3.375019 -3.39194,-4.668358 -1.202585,-1.285352 -3.559454,-3.297983 -3.862064,-3.297983 -0.08777,0 -0.307148,0.157074 -0.487503,0.349054 l -0.327919,0.349055 0.801737,1.229973 c 1.148441,1.761865 2.629114,4.785354 3.173963,6.481142 l 0.176977,0.550823 h 2.191899 c 1.205545,0 2.191899,-0.03405 2.191899,-0.07567 z"
     id="path4600"
     inkscape:connector-curvature="0"
     transform="translate(-255,347)" /><path
     style="fill:#ffffff;fill-opacity:1;stroke:#ffffff;stroke-width:0.14688602;stroke-opacity:1"
     d="M 46.201274,77.200506 C 35.351124,75.423045 26.904612,67.663831 24.103533,56.900869 23.082232,52.976588 23.0246,47.749893 23.957672,43.672584 c 2.273004,-9.932502 10.08724,-17.982264 19.77113,-20.367045 2.412355,-0.594073 3.849236,-0.722733 7.103699,-0.636075 2.211126,0.05888 3.301779,0.155761 4.38162,0.389225 8.258248,1.785452 15.036908,7.16045 18.760229,14.875534 5.621657,11.648623 2.489703,25.601666 -7.56574,33.70583 -3.158656,2.545713 -7.245817,4.473711 -11.310224,5.335265 -1.934181,0.409998 -6.988131,0.537915 -8.897112,0.225188 z m 1.479369,-11.760174 v -5.365064 l -4.180755,0.01197 -4.180754,0.01197 0.369092,0.836353 c 1.103072,2.499531 2.563264,4.7766 4.207355,6.561077 1.037056,1.125608 3.452673,3.298269 3.674897,3.305288 0.06059,0.0019 0.110165,-2.410801 0.110165,-5.361588 z m 6.664763,3.83046 c 1.104448,-0.950016 2.841341,-3.018597 3.953135,-4.708049 0.83698,-1.271852 2.011304,-3.461803 2.225117,-4.14953 l 0.102751,-0.330494 h -4.19615 -4.19615 v 4.679852 c 0,2.573917 0.04216,4.987419 0.09368,5.363336 l 0.09368,0.683485 0.530584,-0.398237 c 0.29182,-0.219031 0.918828,-0.732193 1.393349,-1.140363 z M 38.030857,68.405044 c 0.212936,-0.32498 0.192339,-0.395869 -0.37345,-1.285252 -0.920504,-1.446979 -2.371401,-4.402131 -2.842379,-5.789295 l -0.423653,-1.247778 h -2.097558 -2.097559 l 0.359775,0.709983 c 1.219265,2.406104 4.08487,5.790211 6.40193,7.560295 0.631761,0.482623 0.785871,0.4901 1.072894,0.05205 z m 25.514066,-0.464406 c 1.208416,-0.988643 3.105881,-2.948929 3.916326,-4.045989 0.807508,-1.093083 2.252296,-3.428822 2.252296,-3.641207 0,-0.121296 -0.575442,-0.170723 -1.98757,-0.170723 -1.760106,0 -1.998056,0.02942 -2.079175,0.257051 -0.676176,1.897451 -2.022572,4.600279 -3.65291,7.333049 -0.27216,0.456194 -0.272203,0.472628 -0.002,0.771152 0.151822,0.167763 0.341063,0.305023 0.420533,0.305023 0.07947,0 0.589114,-0.36376 1.132542,-0.808356 z M 33.284593,55.345645 c -6.76e-4,-0.0202 -0.09853,-0.763807 -0.217462,-1.652467 -0.333463,-2.491626 -0.26194,-6.209301 0.164609,-8.556111 l 0.08677,-0.477379 -1.595372,0.01453 c -0.877454,0.008 -1.958914,0.05756 -2.403244,0.110164 l -0.807873,0.09564 -0.167754,0.954759 c -0.317665,1.807977 -0.200293,7.94732 0.174513,9.128231 0.04432,0.139624 0.22617,0.282098 0.404122,0.316607 0.345396,0.06698 4.363747,0.127816 4.361694,0.06603 z m 14.323326,-5.162958 c 0.05958,-2.859825 0.06336,-5.272428 0.0084,-5.36134 -0.06942,-0.112309 -1.571771,-0.161659 -4.921363,-0.161659 h -4.821447 l -0.08378,0.403936 c -0.04608,0.222165 -0.164548,1.44557 -0.263256,2.718678 -0.140583,1.813211 -0.141147,2.7998 -0.0026,4.553467 0.09728,1.231298 0.215739,2.420496 0.263253,2.642661 l 0.08639,0.403937 h 4.813036 4.813035 l 0.108322,-5.19968 z m 14.581653,4.244921 c 0.363023,-1.705951 0.22088,-8.283407 -0.202875,-9.387693 -0.08368,-0.218061 -3.142179,-0.378951 -7.218804,-0.379738 l -2.533784,-4.89e-4 0.0013,4.590188 c 7.35e-4,2.524603 0.04306,4.938097 0.09414,5.363319 l 0.09286,0.773133 4.789823,-0.0387 4.789776,-0.0387 z m 9.559405,-0.07344 c 0.276981,-1.313442 0.276976,-7.205985 -7e-6,-8.519389 l -0.20135,-0.954759 -2.389614,-0.04038 -2.389614,-0.04038 0.113881,0.407594 c 0.06264,0.224176 0.113881,2.60698 0.113881,5.295121 v 4.887527 l 2.27574,-0.04029 2.27574,-0.04029 z M 33.366551,39.86551 l 1.182382,-0.09206 0.339106,-0.971979 c 0.466474,-1.33705 1.735402,-3.911466 2.79373,-5.667948 l 0.882387,-1.464478 -0.314668,-0.334948 c -0.299962,-0.319295 -0.332344,-0.323669 -0.692931,-0.09359 -2.321883,1.48152 -5.18761,4.688941 -6.894474,7.716534 l -0.470058,0.833778 0.335084,0.06426 c 0.546233,0.104749 1.579441,0.108547 2.839442,0.01044 z m 12.000637,-0.0031 2.313455,-0.09595 v -5.274902 -5.274902 l -0.47738,0.336327 c -0.972495,0.685149 -3.407873,3.178881 -4.436958,4.543273 -1.073214,1.422898 -2.214182,3.330698 -2.908603,4.863443 l -0.378953,0.836435 0.538962,0.05691 c 0.977354,0.103202 3.001541,0.106745 5.349477,0.0094 z m 15.092538,-0.140992 c 0,-0.46752 -2.049302,-4.089709 -3.05359,-5.397286 -1.28703,-1.675709 -4.679777,-5.087477 -5.059113,-5.087477 -0.0621,0 -0.112914,2.415221 -0.112914,5.367157 v 5.367157 l 4.112809,-0.01852 c 3.482103,-0.01568 4.112808,-0.05111 4.112808,-0.231031 z m 9.253819,0.07818 c 0,-0.313925 -1.100589,-2.119736 -2.134285,-3.501863 -1.125403,-1.504747 -3.122899,-3.547225 -4.534271,-4.636383 -0.792703,-0.611728 -0.892855,-0.651295 -1.175088,-0.464235 -0.169692,0.11247 -0.327713,0.3009 -0.351158,0.418735 -0.02345,0.117835 0.329508,0.803974 0.784341,1.524753 1.023906,1.622594 1.914268,3.380378 2.635449,5.202988 0.30368,0.767479 0.58081,1.444991 0.615843,1.505582 0.105472,0.182411 4.159169,0.134092 4.159169,-0.04958 z"
     id="path4602"
     inkscape:connector-curvature="0"
     transform="translate(-255,347)"
     inkscape:export-xdpi="111.9567"
     inkscape:export-ydpi="111.9567" /></svg>